<svg width="111" height="111" viewBox="0 0 111 111" fill="none" xmlns="http://www.w3.org/2000/svg">
<g clip-path="url(#clip0_34_94)">
<path d="M81.4844 20.7213C87.2057 20.7213 91.8437 16.0834 91.8437 10.3621C91.8437 4.6409 87.2057 0.00292969 81.4844 0.00292969C75.7632 0.00292969 71.1252 4.6409 71.1252 10.3621C71.1252 16.0834 75.7632 20.7213 81.4844 20.7213Z" fill="black"/>
<path d="M96.9939 47.8049C95.2032 47.5209 81.1329 45.2891 79.4628 45.0241L71.3411 27.2782L81.4018 39.6082L83.4338 33.676C84.5431 30.4376 82.817 26.9129 79.5786 25.8037L66.2592 21.2414C63.028 20.1345 59.5122 21.851 58.3948 25.0757L41.3809 27.6879C39.6821 27.949 38.2271 29.0424 37.5042 30.6015L28.8802 49.2008C27.689 51.7694 28.8045 54.822 31.3769 56.0146C33.9481 57.2068 36.9985 56.0889 38.1907 53.5179L45.6575 37.4146L54.64 36.0353L46.5704 59.5945L37.5418 74.7738L18.635 64.4966C15.6941 62.8974 12.0134 63.9856 10.415 66.927C8.81598 69.8681 9.90423 73.5484 12.8456 75.1471L36.8755 88.2097C39.739 89.7662 43.3163 88.7797 44.9799 85.983L52.5209 73.3046L78.3483 79.3781V104.938C78.3483 108.286 81.0623 111 84.4097 111C87.7572 111 90.4712 108.286 90.4712 104.938V74.5768C90.4712 71.7637 88.5358 69.3203 85.7972 68.6762L72.515 65.5528L74.5461 59.6232L74.3659 59.5948C69.8557 58.8793 66.9454 55.25 66.4463 52.7687L62.3072 32.2005L71.2758 51.7967C71.9888 53.3542 73.4462 54.461 75.138 54.7294C76.6695 54.9722 91.7887 57.3703 95.3865 57.9411C98.1567 58.3807 100.812 56.4928 101.258 53.6768C101.702 50.8779 99.7932 48.2488 96.9939 47.8049Z" fill="black"/>
<path d="M49 107.5H53V104.5H49C47.8954 104.5 47 103.828 47 103C47 102.172 47.8954 101.5 49 101.5H71V98.5H49C45.6862 98.5 43 100.515 43 103C43 105.485 45.6862 107.5 49 107.5Z" fill="black"/>
<path d="M75 92.5H53C51.8954 92.5 51 91.8284 51 91C51 90.1715 51.8954 89.5 53 89.5H57V86.5H53C49.6862 86.5 47 88.5146 47 91C47 93.4854 49.6862 95.5 53 95.5H75V92.5Z" fill="black"/>
<path d="M91 42.5H95V39.5H91C89.8954 39.5 89 38.8284 89 38C89 37.1716 89.8954 36.5 91 36.5H113V33.5H91C87.6862 33.5 85 35.5147 85 38C85 40.4853 87.6862 42.5 91 42.5Z" fill="black"/>
<path d="M117 27.5H95C93.8954 27.5 93 26.8284 93 26C93 25.1715 93.8954 24.5 95 24.5H99V21.5H95C91.6862 21.5 89 23.5146 89 26C89 28.4854 91.6862 30.5 95 30.5H117V27.5Z" fill="black"/>
<path d="M35 24.5H39V21.5H35C33.8954 21.5 33 20.8284 33 20C33 19.1716 33.8954 18.5 35 18.5H57V15.5H35C31.6862 15.5 29 17.5147 29 20C29 22.4853 31.6862 24.5 35 24.5Z" fill="black"/>
<path d="M61 9.5H39C37.8954 9.5 37 8.82845 37 8C37 7.17155 37.8954 6.5 39 6.5H43V3.5H39C35.6862 3.5 33 5.51465 33 8C33 10.4854 35.6862 12.5 39 12.5H61V9.5Z" fill="black"/>
</g>
<defs>
<clipPath id="clip0_34_94">
<rect width="111" height="111" fill="white"/>
</clipPath>
</defs>
</svg>
