<svg width="133" height="133" viewBox="0 0 133 133" fill="none" xmlns="http://www.w3.org/2000/svg">
<path d="M29.0541 61.8609C34.8989 61.8609 39.6371 57.1228 39.6371 51.278C39.6371 45.4332 34.8989 40.6951 29.0541 40.6951C23.2093 40.6951 18.4712 45.4332 18.4712 51.278C18.4712 57.1228 23.2093 61.8609 29.0541 61.8609Z" fill="#010002"/>
<path d="M48.9448 45.3098C54.5172 41.2423 60.0139 38.428 67.0203 38.6112C73.1277 38.7724 78.5536 43.077 82.8092 47.2276C83.0437 50.2837 82.8898 53.335 82.3182 56.3374H92.0705C92.3392 54.4929 90.8197 45.6299 91.8848 44.6038C93.2211 46.0134 98.8742 51.3537 100.174 52.7975C99.6022 53.9897 98.9963 55.1696 98.3758 56.3374H109.264C109.611 55.6021 109.953 54.8643 110.285 54.1192C111.36 51.6884 110.427 49.4775 108.795 48.173C108.558 47.743 108.289 47.3277 107.947 46.9491C104.654 43.27 101.349 39.6153 97.7186 36.2586C97.66 36.2024 97.5916 36.156 97.5379 36.1047C97.274 35.7603 96.9882 35.4207 96.6682 35.0885C90.1406 28.4582 82.1863 22.9958 73.0251 21.0609C74.3761 19.6342 75.7246 18.2076 77.0756 16.7809C81.3996 12.2198 74.3272 5.52856 70.0081 10.0896C66.6563 13.6294 63.3046 17.1717 59.9528 20.7116C57.2851 21.1171 54.6833 21.7987 52.1451 22.7148C52.0107 17.8778 51.8813 13.0431 51.7493 8.20605C51.5783 1.93495 41.848 2.20123 42.019 8.47477C42.1925 14.8045 42.3684 21.1318 42.5394 27.4591C41.4083 28.1724 40.2943 28.9249 39.212 29.7188C29.7016 36.652 39.3464 52.3187 48.9448 45.3098Z" fill="#010002"/>
<path d="M91.2741 67.5653C87.5144 72.5392 94.6698 79.1425 98.4491 74.1393C101.19 70.5066 103.667 66.7444 105.888 62.8235H94.5501C93.507 64.4358 92.4345 66.0238 91.2741 67.5653Z" fill="#010002"/>
<path d="M80.3638 62.8235C80.3344 62.887 80.3125 62.953 80.288 63.0165C77.8011 68.7355 86.3271 73.4504 88.8238 67.6972C89.5249 66.08 90.1088 64.4554 90.6096 62.8235H80.3638Z" fill="#010002"/>
<path d="M5.76972 57.8567V17.0002H2V45.0002V59.0002V73.0002V87.0002V101V129H5.76972V61.0827H20C19.2763 60.1304 18.6798 59.047 18.2397 57.8567H5.76972Z" fill="#010002"/>
<path d="M119.127 17.0002V57.8574H109.074H102.64H89.8025H87.2169H75.6911H68.7154H39.8434C39.3804 59.0428 38.7573 60.1286 38 61.0832H68.7154H74.9706H86.7128H88.1689H101.257H109.074H119.127V129H123V73.5002V17.0002H119.127Z" fill="#010002"/>
</svg>
