<svg width="111" height="111" viewBox="0 0 111 111" fill="none" xmlns="http://www.w3.org/2000/svg">
<g clip-path="url(#clip0_34_110)">
<path d="M46.23 80.9637C39.8884 85.5431 33.6182 90.0674 27.3513 94.5969C25.1333 96.2 22.8503 96.2963 20.5996 94.7785C17.3249 92.5701 16.9064 87.9263 19.6474 84.9969C20.6959 83.8765 22.0109 83.1542 23.2173 82.2752C29.6704 77.5733 36.1447 72.9046 42.6163 68.2316C43.9924 67.238 44.0313 67.2308 43.1164 65.7393C41.5117 63.1232 39.8768 60.5279 38.2345 57.9384C36.4139 55.0675 36.4735 52.3115 38.4028 49.5097C42.8126 43.1056 47.2127 36.6938 51.599 30.2714C51.9945 29.6922 52.5181 29.1684 52.6544 28.3136C52.0267 28.0187 51.3755 28.1118 50.746 28.1113C42.9301 28.1056 35.1141 28.1183 27.2981 28.1066C24.6066 28.1026 22.9565 27.0116 22.1404 24.7786C20.8675 21.2955 23.1634 17.8909 26.8363 17.8825C35.3849 17.863 43.9337 17.8749 52.4824 17.8744C55.8612 17.8741 59.2403 17.9057 62.6186 17.861C64.1946 17.8402 65.5552 18.3194 66.816 19.3181C70.6064 22.3208 74.4311 25.2743 78.2214 28.2772C78.9405 28.8469 79.6627 29.12 80.5733 29.1144C86.3129 29.0789 92.0529 29.0836 97.7927 29.1039C100.753 29.1144 102.879 31.3748 102.838 34.3998C102.801 37.1062 100.855 39.2916 98.1075 39.3272C91.351 39.4148 84.5928 39.3675 77.8354 39.3488C76.3949 39.3448 75.1953 38.6476 74.0587 37.7317C71.5909 35.743 69.0718 33.8268 66.5918 31.8551C66.0525 31.4262 65.6396 31.2675 65.1752 31.9518C61.7867 36.9455 58.3849 41.9289 54.9909 46.9184C54.9482 46.9813 54.9538 47.0816 54.9305 47.1958C55.2464 47.6214 55.7186 47.5536 56.1425 47.5534C60.7798 47.5514 65.4172 47.5366 70.0546 47.5187C71.441 47.5133 72.7072 47.9135 73.8387 48.7671C81.3819 54.4576 88.9395 60.1266 96.455 65.8584C99.0262 67.8194 99.5217 71.5925 97.752 74.5909C96.269 77.1035 92.9358 78.0291 90.2787 76.511C87.5459 74.9497 85.1724 72.796 82.6371 70.9096C78.2311 67.6313 73.86 64.2995 69.4884 60.969C68.7931 60.4392 68.0761 60.2064 67.2198 60.2137C63.3934 60.2465 59.5667 60.2258 55.7402 60.2417C55.3165 60.2434 54.7681 60.0607 54.5331 60.6039C54.3322 61.0683 54.7545 61.3978 54.97 61.7492C55.5715 62.7299 56.1666 63.7163 56.8017 64.6721C59.2371 68.338 58.6686 71.8751 55.1767 74.4521C52.2319 76.6253 49.2617 78.7593 46.23 80.9637Z" fill="black"/>
<path d="M84.4048 15.7538C81.8243 18.6751 77.6077 19.6334 73.8656 18.2121C70.3864 16.8908 67.8987 13.2915 67.8395 9.49354C67.7797 5.66455 70.1956 2.03976 73.7796 0.580765C77.856 -1.0787 82.319 0.188693 84.9921 3.76485C87.6419 7.31 87.4336 11.9534 84.4048 15.7538Z" fill="black"/>
<path d="M66.6938 86.4703C66.683 86.177 66.7172 85.968 66.6574 85.8298C65.1893 82.4392 66.1788 78.7761 66.0046 75.2463C65.9591 74.3239 66.5886 73.8974 67.261 73.8848C68.6996 73.8578 70.1391 73.8468 71.5774 73.8853C72.3696 73.9065 72.8222 74.5145 72.8285 75.5686C72.845 78.3515 72.8377 81.1346 72.829 83.9176C72.8282 84.1741 72.8165 84.5283 72.6965 84.6705C71.847 85.6774 72.0453 86.9972 72.0442 88.2506C72.0379 95.2304 72.0203 102.21 72.0596 109.19C72.0667 110.456 71.7858 110.943 70.8102 110.849C69.8448 110.755 68.8675 110.767 67.9006 110.845C66.9831 110.919 66.6767 110.472 66.6819 109.25C66.7139 101.696 66.6962 94.1416 66.6938 86.4703Z" fill="black"/>
</g>
<defs>
<clipPath id="clip0_34_110">
<rect width="111" height="111" fill="white"/>
</clipPath>
</defs>
</svg>
