<svg width="109" height="109" viewBox="0 0 109 109" fill="none" xmlns="http://www.w3.org/2000/svg">
<path d="M91.0278 7.33834C89.4976 5.13575 86.4721 4.5911 84.2697 6.12102L55.6038 26.039C47.8206 30.5585 28.707 32.5574 28.707 32.5574L30.0083 28.2927C30.3749 26.6098 29.5958 24.8195 27.9961 23.9813C26.077 22.976 23.7062 23.7165 22.7007 25.6356L17.6696 35.2383C17.272 36.0028 17.0606 36.8997 17.1176 37.8225C17.285 40.5313 19.6166 42.5919 22.3257 42.4247L23.2118 42.3697L42.3274 41.1888L50.534 70.0682L41.7568 85.3898L22.3966 95.0101C19.7113 96.3535 18.4433 99.5666 19.5828 102.402C20.783 105.388 24.1767 106.836 27.1629 105.636L49.3801 96.706C50.4895 96.2615 51.4755 95.4792 52.1695 94.3957L65.7614 72.7471L73.7645 82.6524L77.7981 104.242C78.3577 107.193 81.1022 109.29 84.141 108.967C87.3413 108.628 89.6606 105.758 89.3211 102.558L86.7954 78.7468C86.6909 77.7926 86.3448 76.8257 85.745 75.9905L76.581 63.221L67.7046 31.9851L90.0932 13.8849C92.0453 12.2977 92.4869 9.43811 91.0278 7.33834Z" fill="black"/>
<path d="M48.9771 26.6018C56.3233 26.7252 62.3779 20.8704 62.501 13.5249C62.6249 6.18031 56.7698 0.124797 49.4238 0.00191449C42.0785 -0.121458 36.024 5.73333 35.9008 13.0784C35.7775 20.4249 41.631 26.4789 48.9771 26.6018Z" fill="black"/>
<path d="M35.2459 30.909C37.9166 30.909 40.0816 28.744 40.0816 26.0733C40.0816 23.4026 37.9166 21.2375 35.2459 21.2375C32.5752 21.2375 30.4102 23.4026 30.4102 26.0733C30.4102 28.744 32.5752 30.909 35.2459 30.909Z" fill="black"/>
</svg>
