<svg width="121" height="121" viewBox="0 0 121 121" fill="none" xmlns="http://www.w3.org/2000/svg">
<g clip-path="url(#clip0_34_123)">
<path d="M113.742 39.6887L85.3903 38.4008C85.207 38.3933 85.0113 38.3847 84.8253 38.4008C70.3212 39.6723 64.2011 42.2834 61.8854 42.4079L47.9937 42.9864L41.4715 30.7866C41.4499 30.7473 41.4251 30.7101 41.4025 30.671C41.8343 30.3578 42.2664 30.0443 42.7076 29.7233C79.3287 3.11756 81.7462 0.658743 81.3336 0.0910757C80.922 -0.476592 78.1737 0.81697 41.2141 27.6682C40.6076 28.1087 40.0122 28.541 39.4251 28.9685C38.5579 28.6276 37.5676 28.589 36.6231 28.9332C34.9352 29.5481 33.922 31.1918 34.0287 32.8983C3.98413 54.8136 2.20377 56.7719 2.58733 57.3004C2.96793 57.8236 5.6246 56.5546 34.7883 35.4641L40.2909 50.5628C40.9146 52.2691 42.5173 53.523 44.4451 53.6074L45.1433 53.6373L60.9824 54.3262L65.3273 78.1869L59.0967 95.4536L48.3264 109.251C46.4433 111.676 46.7096 115.198 49.0266 117.288C51.4526 119.478 55.1963 119.287 57.3869 116.86L69.9767 102.913C70.322 102.525 70.6312 102.063 70.8527 101.562L71.0444 101.132L79.2756 82.5891C79.5403 82.9406 79.8373 83.2749 80.1705 83.5843L92.995 95.487L87.5313 113.345C86.6504 116.254 88.1218 119.427 90.9968 120.576C94.0336 121.789 97.4787 120.31 98.6916 117.274L107.326 95.6598C108.234 93.3764 107.792 90.6694 105.972 88.7901L105.649 88.4561L92.5379 74.914L88.1313 50.7111L113.742 49.5482C116.255 49.4253 118.331 47.407 118.448 44.8417C118.572 42.12 116.465 39.8124 113.742 39.6887Z" fill="black"/>
<path d="M74.1083 15.4405C67.8524 13.3485 61.0862 16.7254 58.9964 22.9784C56.9047 29.234 60.28 35.9997 66.5354 38.0903C72.7908 40.182 79.5559 36.8067 81.6473 30.5524C83.7382 24.2967 80.3626 17.5322 74.1083 15.4405Z" fill="black"/>
</g>
<defs>
<clipPath id="clip0_34_123">
<rect width="121" height="121" fill="white"/>
</clipPath>
</defs>
</svg>
